<?xml version="1.0" encoding="utf-8"?>
<!-- Generator: Adobe Illustrator 22.1.0, SVG Export Plug-In . SVG Version: 6.00 Build 0)  -->
<svg version="1.1" id="Layer_1" xmlns="http://www.w3.org/2000/svg" xmlns:xlink="http://www.w3.org/1999/xlink" x="0px" y="0px"
	 viewBox="0 0 304 331" style="enable-background:new 0 0 304 331;" xml:space="preserve">
<style type="text/css">
	.st0{fill:#FFFFFF;}
	.st1{fill:#3091F2;}
	.st2{enable-background:new    ;}
	.st3{filter:url(#Adobe_OpacityMaskFilter);}
	.st4{mask:url(#mask-2_1_);fill:#FEC100;}
	.st5{fill:#FEC100;}
	.st6{fill:#1F7FE9;}
	.st7{fill:#222222;}
	.st8{fill:none;stroke:#FFFFFF;}
	.st9{fill:#F2F2F2;}
</style>
<title>icon_01@3x</title>
<desc>Created with Sketch.</desc>
<g id="icon_01">
	<g id="Group-2-Copy">
		<rect id="Rectangle" class="st0" width="304" height="331"/>
		<rect id="Rectangle_1_" class="st1" width="304" height="173"/>
		<g class="st2">
			<path class="st0" d="M22,61V48.9h2v4.4h4.7v-4.4h2V61H22z M23.9,59.3h4.7v-4.4h-4.7V59.3z M33.9,65.8V47.4h2v18.4H33.9z"/>
			<path class="st0" d="M55.8,61.7v1.7H38.8v-1.7H55.8z M53.6,58.6H41.1v-9.9h12.2v1.7H43.1v2.4h10.1v1.6H43.1v2.4h10.5V58.6z"/>
			<path class="st0" d="M74,61.7v1.7H57v-1.7h6.1v-4.3h2v4.3H74z M71.6,48.9v2.6c0,3.8-0.2,5.8-0.7,8.1l-2-0.2
				c0.3-1.4,0.5-2.8,0.6-4.1L59,55.5l0-1.7l10.7-0.1c0-0.5,0-0.9,0-1.4v-1.6H59.2v-1.7H71.6z"/>
			<path class="st0" d="M76,52.3c0-1.8,1.5-4.2,4.6-4.2c3.1,0,4.6,2.4,4.6,4.2v1c0,1.8-1.5,4.2-4.6,4.2c-3.1,0-4.6-2.4-4.6-4.2V52.3
				z M83.4,52.4c0-1.2-0.8-2.6-2.7-2.6s-2.7,1.4-2.7,2.6v0.9c0,1.2,0.8,2.6,2.7,2.6c1.9,0,2.7-1.4,2.7-2.6V52.4z M81,63.9h9.9v1.7
				H79v-6.1h2V63.9z M88.6,60.5V47.4h2v13.2H88.6z"/>
			<path class="st0" d="M115.4,54.7v1.7H98.4v-1.7h6.4v-3.2h2v3.2H115.4z M100.7,47.9h12.2v2.2c0,0.5-0.1,2.4-0.4,3.8l-2-0.2
				c0.3-1.4,0.4-2.6,0.4-3.4v-0.7h-10.2V47.9z M100.9,65.9v-4.8H111v-1.6h-10.2V58h12.2v4.8h-10.1v1.6h10.7v1.6H100.9z"/>
			<path class="st0" d="M133.6,61.7v1.7h-16.9v-1.7H133.6z M131.4,57.8h-12.5v-8.8h12.3v1.7h-10.3v5.4h10.5V57.8z"/>
		</g>
		<g class="st2">
			<path class="st0" d="M21.6,79.1h5.1c3.1,0,4.6,1.2,4.6,3.5V83c0,1.3-0.6,2.5-2.3,2.9c1.8,0.3,3,1.3,3,3.3v0.5
				c0,2.4-1.5,3.8-4.6,3.8h-5.7V79.1z M23.6,80.8v4.4h2.6c2,0,3.1-0.4,3.1-2.2v-0.4c0-1.7-1-1.9-3.3-1.9H23.6z M23.6,91.8h3
				c2.3,0,3.3-0.4,3.3-2.1v-0.4c0-1.8-0.9-2.4-3.8-2.4h-2.6V91.8z"/>
			<path class="st0" d="M37.4,93.5V80.8H33v-1.7h10.8v1.7h-4.4v12.7H37.4z"/>
			<path class="st0" d="M56.1,92.4c-1.3,0.9-3.1,1.3-4.9,1.3c-3.8,0-6.2-2.1-6.2-6.3v-2.2c0-4.2,2.3-6.3,6-6.3
				c1.9,0,3.4,0.5,4.8,1.5l-1,1.6c-1.3-1-2.4-1.3-3.8-1.3c-2.5,0-4,1.5-4,4.8v1.7c0,3.3,1.7,4.8,4.2,4.8c1.1,0,2.1-0.2,2.9-0.6v-4.1
				h-3.2v-1.7h5.2V92.4z"/>
		</g>
		<g id="Group-12" transform="translate(70.000000, 73.000000)">
			<g id="Group-3" transform="translate(0.000000, 0.559500)">
				<g id="Clip-2">
				</g>
				<defs>
					<filter id="Adobe_OpacityMaskFilter" filterUnits="userSpaceOnUse" x="0" y="0.4" width="27.6" height="27.6">
						<feColorMatrix  type="matrix" values="1 0 0 0 0  0 1 0 0 0  0 0 1 0 0  0 0 0 1 0"/>
					</filter>
				</defs>
				<mask maskUnits="userSpaceOnUse" x="0" y="0.4" width="27.6" height="27.6" id="mask-2_1_">
					<g class="st3">
						<polygon id="path-1_1_" class="st0" points="0,0.4 27.6,0.4 27.6,28 0,28 						"/>
					</g>
				</mask>
				<path id="Fill-1" class="st4" d="M13.7,0.4C6.1,0.5,0,6.7,0,14.3C0,21.9,6.2,28,13.9,28c7.6,0,13.7-6.2,13.7-13.9
					C27.5,6.5,21.3,0.4,13.7,0.4"/>
			</g>
			<path id="Fill-4" class="st0" d="M15.7,17.2c-0.5,0.3-1,0.3-1.5,0.4c-0.4,0-0.8,0-1.2,0.1c0-0.3,0-0.6,0-1c0-0.5,0-1-0.1-1.6
				c0-0.1,0-0.1,0.1-0.1c0.6,0,1.2-0.1,1.8,0c0.3,0,0.6,0.1,0.8,0.2c0.4,0.2,0.6,0.5,0.6,1C16.3,16.7,16.1,17,15.7,17.2 M12.7,11.3
				c0.7,0,1.3-0.1,1.9,0.1c0.2,0.1,0.4,0.1,0.6,0.3c0.5,0.4,0.5,1.3-0.2,1.7c-0.4,0.2-0.9,0.3-1.3,0.3c-0.3,0-0.6,0-0.9,0
				C12.8,12.9,12.8,12.1,12.7,11.3 M18.8,15.7c-0.1-0.7-0.4-1.2-1.1-1.5C17.5,14,17.2,14,17,13.9c0,0,0.1-0.1,0.1-0.1
				c0.4-0.3,0.7-0.7,0.8-1.3c0-0.2,0-0.4,0-0.6c-0.1-0.7-0.4-1.3-1.1-1.6c-0.5-0.3-1-0.3-1.6-0.4c-0.1,0-0.2,0-0.4,0
				c0-0.6-0.1-1.3-0.1-1.9c0-0.1,0-0.1-0.1-0.1c-0.3,0-0.7,0-1,0c-0.1,0-0.1,0.1-0.1,0.1c0,0.1,0,0.3,0,0.4c0,0.5,0,0.9,0.1,1.4
				c-0.3,0-0.6,0-0.9,0c0-0.7-0.1-1.3-0.1-2c-0.4,0-0.8,0-1.3,0c0,0.7,0,1.3,0.1,2c-0.8,0-1.6,0.1-2.5,0.1c0,0.4,0,0.8,0,1.2
				c0,0.1,0,0.2,0.2,0.2c0.3,0,0.6,0,0.8,0c0.4,0,0.6,0.2,0.6,0.6l0.2,5.3c0,0.3-0.1,0.5-0.4,0.5c-0.2,0-0.5,0-0.7,0
				c-0.1,0-0.2,0-0.2,0.2c0,0.4-0.1,0.8-0.1,1.2c0,0.1,0,0.1,0,0.2c0,0,0.1,0,0.1,0c0.7,0,1.5,0,2.2-0.1c0.1,0,0.2,0,0.2,0.1
				c0,0.3,0,0.5,0,0.8c0,0.3,0,0.7,0,1.1c0.4,0,0.8,0,1.3,0c0-0.7,0-1.3-0.1-2c0.3,0,0.6,0,0.9,0c0,0.7,0.1,1.3,0.1,2
				c0.4,0,0.8,0,1.2,0c0,0,0.1-0.1,0.1-0.1c0-0.2,0-0.4,0-0.6c0-0.4,0-0.8,0-1.3c0.1,0,0.2,0,0.2,0c0.7-0.1,1.3-0.2,1.9-0.5
				c0.6-0.3,1-0.7,1.2-1.3C18.8,16.8,18.8,16.2,18.8,15.7"/>
			<path id="Fill-6" class="st5" d="M13,17.7c0-0.3,0-0.6,0-1c0-0.5,0-1-0.1-1.6c0-0.1,0-0.1,0.1-0.2c0.6,0,1.2-0.1,1.8,0
				c0.3,0,0.6,0.1,0.8,0.2c0.4,0.2,0.6,0.5,0.6,1c0,0.4-0.2,0.8-0.6,1c-0.5,0.3-1,0.3-1.5,0.4C13.8,17.6,13.4,17.7,13,17.7"/>
			<path id="Fill-8" class="st5" d="M12.7,11.3c0.7,0,1.3-0.1,1.9,0.1c0.2,0.1,0.4,0.1,0.6,0.3c0.5,0.4,0.5,1.3-0.2,1.7
				c-0.4,0.2-0.9,0.3-1.3,0.3c-0.3,0-0.6,0-0.9,0C12.8,12.9,12.8,12.1,12.7,11.3"/>
			<path id="Fill-10" class="st0" d="M13.8,4.6L13.8,4.6C8.1,4.6,3.6,9.2,3.6,14.8c0,2.7,1.1,5.3,3,7.2c1.9,1.9,4.5,2.9,7.1,2.9h0.1
				c2.7,0,5.3-1.1,7.2-3c1.9-1.9,3-4.5,2.9-7.2c0-2.7-1.1-5.3-3-7.2C19,5.7,16.5,4.6,13.8,4.6z M13.8,26.7c-3.2,0-6.1-1.2-8.4-3.4
				C3.2,21,1.9,18,1.9,14.8c0-6.6,5.3-11.9,11.8-12c3.2,0,6.2,1.2,8.4,3.4c2.3,2.2,3.5,5.2,3.5,8.4c0,3.2-1.2,6.2-3.4,8.4
				C20,25.4,17,26.7,13.8,26.7L13.8,26.7z"/>
		</g>
		<g class="st2">
			<path class="st6" d="M21.3,247.6c0.9,0.5,2,0.9,3.1,0.9c3,0,3.8-2.3,3.9-6c-0.4,0.8-1.6,2.1-3.6,2.1c-2.5,0-4.6-1.7-4.6-4.5v-0.5
				c0-2.8,2-4.7,4.7-4.7s4.9,1.9,4.9,5.9v0.6c0,6.4-1.7,8.4-5.3,8.4c-1.3,0-2.6-0.4-3.6-1L21.3,247.6z M28.2,239.8
				c0-2.2-1.4-3.7-3.3-3.7s-3.4,1.3-3.4,3.5v0.3c0,2.2,1.6,3.4,3.4,3.4c1.7,0,3.3-1.4,3.3-3.2V239.8z"/>
			<path class="st6" d="M36.1,249.5h-1.6l5.9-13.1h-8.1v-1.3h9.7v1.1L36.1,249.5z"/>
			<path class="st6" d="M50.6,238.3v0.9c0,2.1-1.2,3.3-3.1,3.3s-3.1-1.2-3.1-3.3v-0.9c0-2.1,1.2-3.3,3.1-3.3S50.6,236.2,50.6,238.3z
				 M49.4,239.1v-0.8c0-1.7-0.8-2.3-1.9-2.3s-1.9,0.7-1.9,2.3v0.8c0,1.7,0.8,2.3,1.9,2.3S49.4,240.8,49.4,239.1z M46.7,249.5
				l8.6-14.4h1.3L48,249.5H46.7z M59,245.5v0.9c0,2.1-1.2,3.3-3.1,3.3s-3.1-1.2-3.1-3.3v-0.9c0-2.1,1.2-3.3,3.1-3.3
				S59,243.4,59,245.5z M57.8,246.3v-0.8c0-1.7-0.8-2.3-1.9-2.3s-1.9,0.7-1.9,2.3v0.8c0,1.7,0.8,2.3,1.9,2.3S57.8,248,57.8,246.3z"
				/>
		</g>
		<g class="st2">
			<path class="st7" d="M77.9,242.5v1.2H61.1v-1.2H77.9z M63.2,245.9h12.2v5.9h-1.4v-4.7H63.2V245.9z M75.3,235.4H65v3.7h10.4v1.2
				H63.6v-6.2h11.7V235.4z"/>
			<path class="st7" d="M84.2,247.9v-4.4H81v-1.2h2.8v-6.1h-2.6V235h12.9v1.2h-2.6v6.1h2.8v1.2h-3.2v4.4h4.9v1.2H79.3v-1.2H84.2z
				 M85.3,242.3h4.8v-6.1h-4.8V242.3z M85.6,247.9h4.2v-4.4h-4.2V247.9z"/>
			<path class="st7" d="M114.3,242v1.2h-7.7v2c2.7,0.2,5,1.2,5,3.2v0.6c0,2.1-2.7,3.2-5.7,3.2c-3,0-5.7-1.1-5.7-3.2v-0.6
				c0-1.9,2.3-3,5-3.2v-2h-7.7V242H114.3z M103.5,239.3c-1.1,0.5-2.3,0.9-4,1.5l-0.6-1.1c1.8-0.6,3.2-1.1,4.2-1.5
				c1.6-0.7,2.1-1.3,2.1-2.3v-0.5h-5.5v-1.2h12.4v1.2h-5.5v0.5c0,1,0.4,1.6,2.1,2.3c1,0.4,2.5,1,4.2,1.5l-0.5,1.1
				c-1.6-0.5-3-1.1-4.1-1.5c-1.2-0.5-2.2-1-2.4-1.4h0C105.6,238.3,104.7,238.8,103.5,239.3z M110.2,248.9v-0.4
				c0-1.4-2.2-2.1-4.3-2.1c-2.1,0-4.3,0.7-4.3,2.1v0.4c0,1.4,2.2,2.1,4.3,2.1C108,251,110.2,250.3,110.2,248.9z"/>
		</g>
		<path id="Rectangle-2-Copy" class="st8" d="M22.5,116.5h97c1.1,0,2,0.9,2,2v31c0,1.1-0.9,2-2,2h-97c-1.1,0-2-0.9-2-2v-31
			C20.5,117.4,21.4,116.5,22.5,116.5z"/>
		<g class="st2">
			<path class="st0" d="M46.6,131.8v-2.3h0.9v2.3h5.2v0.7H42.6v-0.7H46.6z M51.2,127.1v1.1c0,0.9-0.1,2-0.3,2.8l-0.8-0.1
				c0.2-0.9,0.3-1.8,0.3-2.7v-0.4H44v-0.7H51.2z M51.1,135.5v0.4c0,1.3-1.6,2-3.4,2s-3.4-0.7-3.4-2v-0.4c0-1.3,1.6-2,3.4-2
				S51.1,134.3,51.1,135.5z M50.2,135.9v-0.3c0-0.8-1.3-1.3-2.6-1.3s-2.6,0.5-2.6,1.3v0.3c0,0.8,1.3,1.3,2.6,1.3
				S50.2,136.7,50.2,135.9z"/>
			<path class="st0" d="M57,130.2c0,0.2-0.4,0.6-0.9,1.1c-0.4,0.4-1.2,1-1.8,1.5l-0.5-0.6c0.6-0.5,1.4-1.1,2-1.7
				c0.8-0.8,0.8-1.1,0.8-2v-1.5h0.9v1.5c0,0.9,0.1,1.2,0.9,1.9c0.6,0.5,1.2,1,1.8,1.4l-0.5,0.6c-0.6-0.5-1.2-0.9-1.6-1.3
				C57.4,130.8,57,130.4,57,130.2L57,130.2z M55.5,133.7h7.1v4.1h-0.8v-3.3h-6.2V133.7z M62.5,133h-0.8v-6.3h0.8V133z"/>
			<path class="st0" d="M70.3,130.1v-2.6h0.9v2.5c0,0.9,0.1,1.3,0.7,2.1c0.5,0.6,1.2,1.3,2.1,2.1l-0.6,0.6c-0.8-0.7-1.4-1.4-1.9-1.9
				c-0.4-0.4-0.7-0.8-0.8-0.9h0c0,0.2-0.5,0.7-0.9,1.1c-0.4,0.5-1.2,1.3-1.9,1.9l-0.6-0.6c0.8-0.7,1.5-1.3,2-2
				C70.1,131.5,70.3,131,70.3,130.1z M76,130.8h1.8v0.8H76v6.1h-0.9v-11H76V130.8z"/>
			<path class="st0" d="M84.4,131.8c0,2-1,3.2-2.7,3.2s-2.7-1.2-2.7-3.2v-1.1c0-2,1-3.2,2.7-3.2s2.7,1.2,2.7,3.2V131.8z M83.6,130.8
				c0-1.8-0.8-2.5-1.9-2.5s-1.9,0.7-1.9,2.5v0.8c0,1.8,0.8,2.6,1.9,2.6s1.9-0.7,1.9-2.6V130.8z M87.4,137.6h-0.9v-11h0.9V137.6z"/>
			<path class="st0" d="M99.4,135.4v0.7H89.3v-0.7H99.4z M98,133.3h-7.3v-5.7h7.2v0.7h-6.3v1.8h6.3v0.7h-6.3v1.8H98V133.3z"/>
		</g>
		<g class="st2">
			<path class="st6" d="M223.7,241.3v0.7H219v3.6h-0.9V242h-4.6v-0.7H223.7z M222.3,240H215v-4.8h7.2v0.7h-6.3v1.3h6.3v0.7h-6.3v1.3
				h6.4V240z"/>
			<path class="st6" d="M227.5,243.4v-2.7h-1.9V240h1.7v-3.7h-1.6v-0.7h7.7v0.7h-1.6v3.7h1.7v0.7h-1.9v2.7h3v0.7h-10.1v-0.7H227.5z
				 M228.1,240h2.9v-3.7h-2.9V240z M228.3,243.4h2.5v-2.7h-2.5V243.4z"/>
			<path class="st6" d="M238.2,236.4v-1.7h0.9v1.7h2.7v0.7h-6.4v-0.7H238.2z M236.1,240.8v-0.6c0-1.1,0.9-2.3,2.6-2.3
				c1.7,0,2.6,1.2,2.6,2.3v0.6c0,1.1-0.9,2.3-2.6,2.3C237,243.1,236.1,242,236.1,240.8z M236.9,240.3v0.5c0,0.9,0.7,1.6,1.8,1.6
				c1.1,0,1.8-0.7,1.8-1.6v-0.5c0-0.9-0.7-1.6-1.8-1.6C237.6,238.7,236.9,239.4,236.9,240.3z M244,239.2h1.8v0.8H244v5.7h-0.9v-11
				h0.9V239.2z"/>
			<path class="st6" d="M246.9,242.5c3.7-2.1,4.1-2.8,4.1-4.6v-1.4h-4v-0.8h4.8v2.2c0,2.2-0.6,3-4.5,5.3L246.9,242.5z M255.4,245.6
				h-0.9v-11h0.9V245.6z"/>
		</g>
		<g class="st2">
			<path class="st0" d="M23.8,20.6c0,0.2-0.4,0.6-0.9,1.1c-0.4,0.4-1.1,1-1.8,1.5l-0.5-0.6c0.6-0.5,1.4-1.1,2-1.7
				c0.8-0.8,0.8-1.1,0.8-2v-1.8h0.9v1.7c0,0.9,0.1,1.2,0.9,1.9c0.6,0.5,1.2,1,1.8,1.4l-0.5,0.6c-0.7-0.5-1.2-0.9-1.6-1.3
				C24.2,21.1,23.9,20.8,23.8,20.6L23.8,20.6z M23.6,26.8h6.1v0.7h-7v-3.7h0.9V26.8z M29.4,24.5h-0.8v-7.8h0.8V24.5z"/>
			<path class="st0" d="M34.9,20.8c0,0.2-0.4,0.6-0.9,1c-0.4,0.4-1.2,1-1.8,1.4l-0.5-0.6c0.7-0.5,1.5-1.1,2.1-1.7
				c0.6-0.6,0.7-1,0.7-1.6v-0.7h-2.5v-0.7h2.5v-1.4h0.9v1.4h2.4v0.7h-2.4v0.6c0,0.7,0.1,1,0.9,1.7c0.4,0.3,1.1,0.8,1.7,1.3l-0.5,0.6
				c-0.5-0.3-1.1-0.8-1.4-1.1C35.4,21.3,34.9,20.9,34.9,20.8L34.9,20.8z M40.5,25.5v0.5c0,1.2-1.5,2-3.3,2s-3.3-0.8-3.3-2v-0.5
				c0-1.2,1.5-2,3.3-2S40.5,24.2,40.5,25.5z M39.7,25.9v-0.4c0-0.8-1.2-1.3-2.5-1.3s-2.5,0.5-2.5,1.3v0.4c0,0.8,1.2,1.3,2.5,1.3
				S39.7,26.7,39.7,25.9z M40.5,23.2h-0.8v-2.7h-2.2v-0.7h2.2v-3.2h0.8V23.2z"/>
			<path class="st0" d="M42.8,19.6v-0.5c0-1.2,1.1-2.2,2.7-2.2c1.6,0,2.7,1,2.7,2.2v0.5c0,1.2-1.1,2.2-2.7,2.2
				C43.9,21.8,42.8,20.8,42.8,19.6z M43.6,19.2v0.4c0,0.8,0.8,1.5,1.9,1.5s1.9-0.7,1.9-1.5v-0.4c0-0.8-0.8-1.5-1.9-1.5
				C44.4,17.7,43.6,18.3,43.6,19.2z M51.3,22.7v2.8h-5.9v1.4h6.2v0.7h-7v-2.8h5.9v-1.4h-5.9v-0.7H51.3z M51.3,22.1h-0.8v-5.4h0.8
				V22.1z"/>
			<path class="st0" d="M59.9,21.8c0.9-1.1,1.1-1.6,1.1-2v-0.1c0-0.9-0.6-1.4-1.6-1.4c-0.8,0-1.4,0.3-2,1.3l-0.7-0.4
				c0.4-0.7,1.2-1.7,2.7-1.7c1.5,0,2.5,0.9,2.5,2.2v0.1c0,0.9-0.7,1.7-1.4,2.6l-2.7,3.2h4.4v0.8h-5.5v-0.7L59.9,21.8z"/>
			<path class="st0" d="M69.5,22.7c0,2.4-0.9,3.8-3,3.8c-2.1,0-2.9-1.4-2.9-3.8v-1.3c0-2.4,0.9-3.8,2.9-3.8c2,0,3,1.4,3,3.8V22.7z
				 M68.6,21.3c0-2.1-0.7-3-2.1-3c-1.3,0-2.1,0.9-2.1,3v1.4c0,2.1,0.7,3,2.1,3c1.4,0,2.1-0.9,2.1-3V21.3z"/>
			<path class="st0" d="M73.9,26.3v-7.6L71.8,20l-0.4-0.7l2.7-1.7h0.6v8.6H73.9z"/>
			<path class="st0" d="M78.2,23.9c0-0.9,0.6-1.7,1.6-2c-0.8-0.4-1.3-1.1-1.3-2v-0.2c0-1.2,1.1-2.2,2.5-2.2s2.5,0.9,2.5,2.2v0.2
				c0,0.9-0.5,1.6-1.3,2c0.9,0.3,1.6,1.1,1.6,2v0.2c0,1.4-1.1,2.3-2.8,2.3s-2.8-0.9-2.8-2.3V23.9z M79,24.1c0,0.9,0.7,1.6,1.9,1.6
				c1.2,0,1.9-0.7,1.9-1.6v-0.1c0-1-0.8-1.7-1.9-1.7c-1.1,0-1.9,0.7-1.9,1.7V24.1z M79.3,19.9c0,0.9,0.7,1.7,1.7,1.7
				c1,0,1.7-0.8,1.7-1.7v-0.1c0-0.9-0.7-1.5-1.7-1.5c-1,0-1.7,0.6-1.7,1.5V19.9z"/>
			<path class="st0" d="M85.4,25.5h1.2v1.2h-1.2V25.5z"/>
			<path class="st0" d="M94,22.7c0,2.4-0.9,3.8-3,3.8c-2.1,0-2.9-1.4-2.9-3.8v-1.3c0-2.4,0.9-3.8,2.9-3.8c2,0,3,1.4,3,3.8V22.7z
				 M93.2,21.3c0-2.1-0.7-3-2.1-3c-1.3,0-2.1,0.9-2.1,3v1.4c0,2.1,0.7,3,2.1,3c1.4,0,2.1-0.9,2.1-3V21.3z"/>
			<path class="st0" d="M96.1,25.1c0.5,0.3,1.2,0.5,1.9,0.5c1.8,0,2.3-1.4,2.3-3.6c-0.2,0.5-1,1.2-2.2,1.2c-1.5,0-2.7-1-2.7-2.7
				v-0.3c0-1.7,1.2-2.8,2.8-2.8s2.9,1.1,2.9,3.5v0.4c0,3.8-1,5-3.2,5c-0.8,0-1.5-0.2-2.2-0.6L96.1,25.1z M100.2,20.5
				c0-1.3-0.8-2.2-2-2.2s-2,0.8-2,2.1v0.2c0,1.3,1,2,2,2c1,0,2-0.8,2-1.9V20.5z"/>
			<path class="st0" d="M102.8,25.5h1.2v1.2h-1.2V25.5z"/>
			<path class="st0" d="M109,21.8c0.9-1.1,1.1-1.6,1.1-2v-0.1c0-0.9-0.6-1.4-1.6-1.4c-0.8,0-1.4,0.3-2,1.3l-0.7-0.4
				c0.4-0.7,1.2-1.7,2.7-1.7c1.5,0,2.5,0.9,2.5,2.2v0.1c0,0.9-0.7,1.7-1.4,2.6l-2.7,3.2h4.4v0.8h-5.5v-0.7L109,21.8z"/>
			<path class="st0" d="M118.6,22.7c0,2.4-0.9,3.8-3,3.8c-2.1,0-2.9-1.4-2.9-3.8v-1.3c0-2.4,0.9-3.8,2.9-3.8c2,0,3,1.4,3,3.8V22.7z
				 M117.7,21.3c0-2.1-0.7-3-2.1-3c-1.3,0-2.1,0.9-2.1,3v1.4c0,2.1,0.7,3,2.1,3c1.4,0,2.1-0.9,2.1-3V21.3z"/>
		</g>
		<rect id="Rectangle-2" x="6" y="272" class="st9" width="292" height="5"/>
		<rect id="Rectangle-2-Copy-2" x="6" y="272" class="st6" width="240" height="5"/>
		<polygon id="Fill-1_1_" class="st6" points="268,235.8 269.7,234 278,242.5 270.4,250.3 269.7,251 268,249.2 274.5,242.5 		"/>
	</g>
</g>
</svg>
