<?xml version="1.0" encoding="utf-8"?>
<!-- Generator: Adobe Illustrator 22.1.0, SVG Export Plug-In . SVG Version: 6.00 Build 0)  -->
<svg version="1.1" id="Layer_1" xmlns="http://www.w3.org/2000/svg" xmlns:xlink="http://www.w3.org/1999/xlink" x="0px" y="0px"
	 viewBox="0 0 720 212" style="enable-background:new 0 0 720 212;" xml:space="preserve">
<style type="text/css">
	.st0{fill:none;stroke:#CECFD0;}
	.st1{fill:#F4F5F6;}
	.st2{enable-background:new    ;}
	.st3{fill:#828288;}
	.st4{fill:#222222;}
	.st5{fill:#F4D062;}
	.st6{fill:none;stroke:#CECFD0;stroke-linecap:square;}
	.st7{filter:url(#Adobe_OpacityMaskFilter);}
	.st8{fill:#FFFFFF;}
	.st9{mask:url(#mask-2_1_);fill:#FEC100;}
	.st10{fill:#FEC100;}
</style>
<title>icon_03_03</title>
<desc>Created with Sketch.</desc>
<g id="icon_03_03">
	<path id="Rectangle-Copy-26" class="st0" d="M2.5,0.5h715c1.1,0,2,0.9,2,2v208c0,1.1-0.9,2-2,2H2.5c-1.1,0-2-0.9-2-2V2.5
		C0.5,1.4,1.4,0.5,2.5,0.5z"/>
	<rect id="Rectangle-Copy-25" class="st1" width="720" height="118"/>
	<g class="st2">
		<path class="st3" d="M261.4,151.7v0.8h-5v4.3h-0.9v-4.3h-5v-0.8H261.4z M255.9,148.1L255.9,148.1c-0.2,0.3-0.7,0.7-1.5,1.1
			c-0.7,0.4-1.7,0.8-2.8,1.2l-0.4-0.7c1-0.4,2-0.8,2.9-1.3c1-0.5,1.4-0.9,1.4-2.1v-1h0.9v1c0,1.2,0.4,1.6,1.4,2.1
			c0.8,0.4,1.9,0.9,2.8,1.3l-0.4,0.7c-1.1-0.4-2-0.9-2.7-1.2C256.6,148.8,256.1,148.4,255.9,148.1z"/>
		<path class="st3" d="M263.6,150.6c3,0,4,0,5.7-0.2l0.1,0.8c-1.5,0.2-3.1,0.2-6.7,0.2v-3.4h4.2v-1.8h-4.2v-0.8h5.1v3.4h-4.2V150.6z
			 M264.4,154.5c0-1.3,1.4-2.1,3.5-2.1c2.2,0,3.5,0.9,3.5,2.1v0.5c0,1.3-1.4,2.1-3.5,2.1c-2.2,0-3.5-0.8-3.5-2.1V154.5z
			 M270.6,154.9v-0.4c0-0.8-1-1.4-2.7-1.4c-1.6,0-2.7,0.6-2.7,1.4v0.4c0,0.8,1,1.4,2.7,1.4C269.6,156.3,270.6,155.7,270.6,154.9z
			 M271.5,146.8h1.8v0.8h-1.8v1.6h1.8v0.8h-1.8v2.1h-0.9v-7.2h0.9V146.8z"/>
	</g>
	<g class="st2">
		<path class="st3" d="M51.4,39.7v0.8h-5v4.3h-0.9v-4.3h-5v-0.8H51.4z M45.9,36.2L45.9,36.2c-0.2,0.3-0.7,0.7-1.5,1.1
			c-0.7,0.4-1.6,0.8-2.7,1.2l-0.4-0.7c1-0.4,2-0.8,2.8-1.2c1.2-0.7,1.4-1.2,1.4-2.1v-0.1h-3.6v-0.8H50v0.8h-3.6v0.1
			c0,0.9,0.1,1.4,1.4,2.1c0.8,0.4,1.8,0.9,2.8,1.2l-0.4,0.7c-1-0.4-1.9-0.8-2.7-1.2C46.6,36.9,46.1,36.6,45.9,36.2z"/>
		<path class="st3" d="M63.2,38.9v0.8h-4.9v2.5h-0.9v-2.5h-5.1v-0.8H63.2z M54.8,43.8h7v0.8h-7.9v-3.5h0.9V43.8z M61.6,33.4v4.2
			h-7.6v-4.2H61.6z M54.8,36.8h5.9v-2.6h-5.9V36.8z"/>
		<path class="st3" d="M78.3,38.6v0.8H67.4v-0.8H78.3z M76.6,34.2h-6.7v2.3h6.7v0.8H69v-3.9h7.6V34.2z M76.5,42.6V43
			c0,1.4-1.7,2.1-3.7,2.1c-1.9,0-3.7-0.7-3.7-2.1v-0.4c0-1.4,1.7-2.1,3.7-2.1C74.8,40.5,76.5,41.2,76.5,42.6z M75.6,42.9v-0.3
			c0-0.9-1.4-1.4-2.8-1.4c-1.4,0-2.8,0.5-2.8,1.4v0.3c0,0.9,1.4,1.4,2.8,1.4C74.2,44.3,75.6,43.8,75.6,42.9z"/>
		<path class="st3" d="M80.8,33.3h7.6v2.8h-6.7v1.2h7v0.8h-3.6v1.2h5v0.8H79.2v-0.8h5v-1.2h-3.4v-2.8h6.7v-1.2h-6.8V33.3z
			 M80.6,41.3h8v3.6h-0.9v-2.8h-7V41.3z"/>
		<path class="st3" d="M91.6,36.1v-0.6c0-1.3,1.2-2.4,2.9-2.4s2.9,1.1,2.9,2.4v0.6c0,1.3-1.2,2.4-2.9,2.4S91.6,37.3,91.6,36.1z
			 M92.5,35.6V36c0,0.9,0.8,1.6,2,1.6s2-0.7,2-1.6v-0.4c0-0.9-0.8-1.6-2-1.6S92.5,34.7,92.5,35.6z M100.8,39.4v3.1h-6.4V44h6.7v0.8
			h-7.6v-3.1h6.4v-1.5h-6.4v-0.8H100.8z M100.8,38.7h-0.9v-5.9h0.9V38.7z"/>
		<path class="st3" d="M110.1,38.5c1-1.2,1.2-1.7,1.2-2.2v-0.1c0-0.9-0.7-1.5-1.8-1.5c-0.8,0-1.6,0.3-2.2,1.4l-0.7-0.5
			c0.4-0.8,1.3-1.8,2.9-1.8c1.7,0,2.7,0.9,2.7,2.3v0.1c0,1-0.8,1.9-1.6,2.8l-2.9,3.4h4.8v0.8h-6v-0.8L110.1,38.5z"/>
		<path class="st3" d="M120.5,39.4c0,2.7-0.9,4.1-3.2,4.1c-2.2,0-3.2-1.5-3.2-4.1v-1.5c0-2.6,1-4.1,3.2-4.1c2.2,0,3.2,1.5,3.2,4.1
			V39.4z M119.6,37.9c0-2.3-0.8-3.3-2.3-3.3c-1.4,0-2.2,1-2.2,3.3v1.5c0,2.3,0.8,3.3,2.2,3.3c1.5,0,2.3-0.9,2.3-3.3V37.9z"/>
		<path class="st3" d="M125.3,43.3v-8.2l-2.3,1.4l-0.4-0.7l2.9-1.8h0.7v9.4H125.3z"/>
		<path class="st3" d="M129.9,40.7c0-1,0.7-1.9,1.7-2.2c-0.9-0.4-1.4-1.2-1.4-2.2v-0.2c0-1.3,1.1-2.3,2.7-2.3c1.6,0,2.7,1,2.7,2.3
			v0.2c0,1-0.5,1.8-1.4,2.2c1,0.3,1.7,1.2,1.7,2.2V41c0,1.5-1.2,2.5-3,2.5c-1.8,0-3-1-3-2.5V40.7z M130.9,40.9c0,1,0.8,1.7,2.1,1.7
			c1.3,0,2.1-0.8,2.1-1.7v-0.2c0-1.1-0.9-1.8-2.1-1.8c-1.2,0-2.1,0.7-2.1,1.8V40.9z M131.1,36.4c0,1,0.7,1.8,1.8,1.8
			c1.1,0,1.8-0.8,1.8-1.8v-0.2c0-1-0.7-1.6-1.8-1.6c-1.1,0-1.8,0.6-1.8,1.6V36.4z"/>
		<path class="st3" d="M137.8,42.4h1.3v1.3h-1.3V42.4z"/>
		<path class="st3" d="M144.1,43.3v-8.2l-2.3,1.4l-0.4-0.7l2.9-1.8h0.7v9.4H144.1z"/>
		<path class="st3" d="M154.9,39.4c0,2.7-0.9,4.1-3.2,4.1c-2.2,0-3.2-1.5-3.2-4.1v-1.5c0-2.6,1-4.1,3.2-4.1c2.2,0,3.2,1.5,3.2,4.1
			V39.4z M154,37.9c0-2.3-0.8-3.3-2.3-3.3c-1.4,0-2.2,1-2.2,3.3v1.5c0,2.3,0.8,3.3,2.2,3.3c1.5,0,2.3-0.9,2.3-3.3V37.9z"/>
		<path class="st3" d="M156.6,42.4h1.3v1.3h-1.3V42.4z"/>
		<path class="st3" d="M165.9,39.4c0,2.7-0.9,4.1-3.2,4.1c-2.2,0-3.2-1.5-3.2-4.1v-1.5c0-2.6,1-4.1,3.2-4.1c2.2,0,3.2,1.5,3.2,4.1
			V39.4z M165,37.9c0-2.3-0.8-3.3-2.3-3.3c-1.4,0-2.2,1-2.2,3.3v1.5c0,2.3,0.8,3.3,2.2,3.3c1.5,0,2.3-0.9,2.3-3.3V37.9z"/>
		<path class="st3" d="M171.1,38.5c1-1.2,1.2-1.7,1.2-2.2v-0.1c0-0.9-0.7-1.5-1.8-1.5c-0.8,0-1.6,0.3-2.2,1.4l-0.7-0.5
			c0.4-0.8,1.3-1.8,2.9-1.8c1.7,0,2.7,0.9,2.7,2.3v0.1c0,1-0.8,1.9-1.6,2.8l-2.9,3.4h4.8v0.8h-6v-0.8L171.1,38.5z"/>
		<path class="st3" d="M175.4,42.4h1.3v1.3h-1.3V42.4z"/>
		<path class="st3" d="M184.9,43.3v-8.2l-2.3,1.4l-0.4-0.7l2.9-1.8h0.7v9.4H184.9z"/>
		<path class="st3" d="M194.9,35.2c-0.6-0.3-1.3-0.6-2-0.6c-1.8,0-2.4,1.5-2.5,4c0.3-0.6,1.1-1.3,2.4-1.3c1.6,0,3,1.1,3,2.9v0.3
			c0,1.8-1.3,3-3.1,3c-1.8,0-3.2-1.2-3.2-3.8v-0.3c0-4,1.3-5.5,3.4-5.5c0.8,0,1.7,0.2,2.4,0.6L194.9,35.2z M190.5,40.3
			c0,1.4,0.9,2.4,2.2,2.4c1.3,0,2.2-0.8,2.2-2.2v-0.2c0-1.4-1-2.2-2.2-2.2c-1.1,0-2.2,0.9-2.2,2.1V40.3z"/>
		<path class="st3" d="M197.8,35.6h1.3v1.3h-1.3V35.6z M197.8,41.4h1.3v1.3h-1.3V41.4z"/>
		<path class="st3" d="M204.5,43.3v-8.2l-2.3,1.4l-0.4-0.7l2.9-1.8h0.7v9.4H204.5z"/>
		<path class="st3" d="M212.7,38.5c1-1.2,1.2-1.7,1.2-2.2v-0.1c0-0.9-0.7-1.5-1.8-1.5c-0.8,0-1.6,0.3-2.2,1.4l-0.7-0.5
			c0.4-0.8,1.3-1.8,2.9-1.8c1.7,0,2.7,0.9,2.7,2.3v0.1c0,1-0.8,1.9-1.6,2.8l-2.9,3.4h4.8v0.8h-6v-0.8L212.7,38.5z"/>
	</g>
	<g class="st2">
		<path class="st4" d="M536.5,145.5v5.4h-4.6v-5.4h0.9v1.9h2.8v-1.9H536.5z M535.6,150.2v-1.9h-2.8v1.9H535.6z M533.8,152.5h7.7v4.3
			h-0.9v-3.5h-6.8V152.5z M538.9,147.8h1.7v-2.9h0.9v6.9h-0.9v-3.2h-1.7v3.2H538V145h0.9V147.8z"/>
		<path class="st4" d="M546.3,148.6v-2.8h0.9v2.7c0,1,0.1,1.4,0.8,2.2c0.5,0.6,1.3,1.4,2.3,2.3l-0.6,0.6c-0.8-0.8-1.5-1.5-2.1-2.1
			c-0.4-0.4-0.8-0.8-0.8-1h0c0,0.2-0.5,0.8-0.9,1.2c-0.5,0.5-1.3,1.4-2.1,2l-0.6-0.6c0.9-0.8,1.6-1.4,2.2-2.1
			C546.2,150.1,546.3,149.6,546.3,148.6z M552.5,149.3h2v0.8h-2v6.6h-0.9v-11.9h0.9V149.3z"/>
		<path class="st4" d="M558.8,148.5c-0.1,0.2-0.4,0.6-1,1.1c-0.5,0.4-1.2,1-2.1,1.6l-0.5-0.7c0.8-0.6,1.6-1.2,2.1-1.7
			c0.8-0.7,1-1.1,1-2.1v-1.4h0.9v1.4c0,0.9,0.1,1.2,0.9,1.9c0.5,0.4,1.2,1,1.9,1.4l-0.5,0.7c-0.6-0.4-1.2-0.9-1.6-1.2
			C559.4,149.1,558.9,148.7,558.8,148.5L558.8,148.5z M564.9,151.6v5.1h-7.3v-5.1h0.9v1.6h5.5v-1.6H564.9z M564,155.9v-1.9h-5.5v1.9
			H564z M564.9,150.9H564v-6h0.9V150.9z"/>
		<path class="st4" d="M570.9,148.7c0,0.2-0.4,0.5-0.9,1c-0.5,0.4-1.3,1-2.1,1.5l-0.5-0.7c0.8-0.5,1.5-1,2.1-1.5
			c0.8-0.6,0.9-1,0.9-1.9v-0.3h-2.8V146h2.8v-1.4h0.9v1.4h2.6v0.8h-2.6v0.2c0,1,0.1,1.2,1,1.9c0.5,0.4,1.2,0.9,1.9,1.3l-0.5,0.7
			c-0.5-0.3-1.1-0.8-1.7-1.1C571.4,149.3,570.9,148.9,570.9,148.7L570.9,148.7z M576.8,151.7v3h-6.4v1.4h6.7v0.8h-7.6v-3h6.4v-1.4
			h-6.4v-0.8H576.8z M576.8,151h-0.9v-6.1h0.9V151z"/>
		<path class="st4" d="M584.7,151.2h-5.3v-5.6h5.3V151.2z M583.8,146.4h-3.5v4h3.5V146.4z M581.9,155.8h6.6v0.8H581v-3.9h0.9V155.8z
			 M588.1,148.4h1.8v0.8h-1.8v4.2h-0.9v-8.5h0.9V148.4z"/>
		<path class="st4" d="M598.6,150.8c-1.2,0.1-2.3,0.2-3.8,0.2v1.9h-0.9v-1.9c-0.9,0-1.9,0-3.1,0v-0.8c3.7,0,5.5-0.1,7.7-0.3
			L598.6,150.8z M591.7,147.6v-0.5c0-1.1,1.3-1.9,2.9-1.9s2.9,0.8,2.9,1.9v0.5c0,1.1-1.3,1.9-2.9,1.9S591.7,148.7,591.7,147.6z
			 M592.5,147.1v0.3c0,0.7,0.9,1.2,2,1.2s2-0.6,2-1.2v-0.3c0-0.7-0.9-1.2-2-1.2S592.5,146.5,592.5,147.1z M593.8,155.8h6.9v0.8h-7.9
			v-3.1h0.9V155.8z M599.5,152v-7.2h0.9v9.2h-0.9v-1.3h-2.7V152H599.5z"/>
	</g>
	<g class="st2">
		<path class="st3" d="M489.5,150.9v-1.4h0.9v1.4h5v0.8h-10.9v-0.8H489.5z M488.5,149c-0.7,0.3-1.7,0.6-2.7,0.9l-0.4-0.7
			c1.2-0.4,2.1-0.7,2.7-0.9c1.1-0.4,1.3-0.8,1.3-1.5v-0.1h-3.6V146h3.6v-1.2h0.9v1.2h3.6v0.8h-3.6v0.1c0,0.7,0.3,1.1,1.3,1.5
			c0.6,0.3,1.6,0.6,2.7,0.9l-0.3,0.7c-1.1-0.3-1.9-0.6-2.7-0.9c-0.8-0.3-1.3-0.6-1.4-0.9h0C489.8,148.4,489.3,148.7,488.5,149z
			 M493.6,154.6v0.4c0,1.3-1.7,2-3.7,2s-3.7-0.7-3.7-2v-0.4c0-1.4,1.7-2,3.7-2S493.6,153.3,493.6,154.6z M492.7,155v-0.3
			c0-0.8-1.4-1.3-2.8-1.3c-1.4,0-2.8,0.5-2.8,1.3v0.3c0,0.8,1.4,1.3,2.8,1.3C491.3,156.3,492.7,155.9,492.7,155z"/>
		<path class="st3" d="M508.8,145.4v1.7c0,0.9-0.1,1.8-0.3,2.8h2v0.8h-10.9v-0.8h8c0.2-1,0.3-1.9,0.3-2.8v-0.8H501v-0.8H508.8z
			 M501.1,152.3h7.7v4.4h-7.7V152.3z M502,155.9h6v-2.8h-6V155.9z"/>
		<path class="st3" d="M511.5,148.5v-0.7c0-1.2,1-2.5,2.6-2.5s2.6,1.2,2.6,2.5v0.7c0,1.2-1,2.5-2.6,2.5S511.5,149.8,511.5,148.5z
			 M512.4,147.9v0.5c0,1,0.7,1.7,1.7,1.7s1.7-0.7,1.7-1.7v-0.5c0-1-0.7-1.7-1.7-1.7S512.4,147,512.4,147.9z M513.7,152.5h7.7v4.4
			h-0.9v-3.5h-6.8V152.5z M518.8,147.8h1.7v-2.9h0.9v6.9h-0.9v-3.2h-1.7v3.2h-0.9V145h0.9V147.8z"/>
	</g>
	<g class="st2">
		<path class="st4" d="M255.6,180.5v-11.4l-3.1,1.9l-0.6-1l4-2.5h1v13H255.6z"/>
		<path class="st4" d="M262.4,179.1h1.6l-1.3,4.1h-1L262.4,179.1z"/>
		<path class="st4" d="M275,175c0,3.7-1.3,5.7-4.4,5.7c-3.1,0-4.4-2.1-4.4-5.7v-2c0-3.6,1.4-5.7,4.4-5.7c3.1,0,4.4,2,4.4,5.7V175z
			 M273.7,172.9c0-3.2-1.1-4.5-3.1-4.5c-2,0-3.1,1.3-3.1,4.5v2.1c0,3.2,1.1,4.5,3.1,4.5c2.1,0,3.1-1.3,3.1-4.5V172.9z"/>
		<path class="st4" d="M285.8,175c0,3.7-1.3,5.7-4.4,5.7c-3.1,0-4.4-2.1-4.4-5.7v-2c0-3.6,1.4-5.7,4.4-5.7c3.1,0,4.4,2,4.4,5.7V175z
			 M284.5,172.9c0-3.2-1.1-4.5-3.1-4.5c-2,0-3.1,1.3-3.1,4.5v2.1c0,3.2,1.1,4.5,3.1,4.5c2.1,0,3.1-1.3,3.1-4.5V172.9z"/>
		<path class="st4" d="M296.6,175c0,3.7-1.3,5.7-4.4,5.7c-3.1,0-4.4-2.1-4.4-5.7v-2c0-3.6,1.4-5.7,4.4-5.7c3.1,0,4.4,2,4.4,5.7V175z
			 M295.3,172.9c0-3.2-1.1-4.5-3.1-4.5c-2,0-3.1,1.3-3.1,4.5v2.1c0,3.2,1.1,4.5,3.1,4.5c2.1,0,3.1-1.3,3.1-4.5V172.9z"/>
		<path class="st4" d="M299.2,179.1h1.6l-1.3,4.1h-1L299.2,179.1z"/>
		<path class="st4" d="M311.8,175c0,3.7-1.3,5.7-4.4,5.7c-3.1,0-4.4-2.1-4.4-5.7v-2c0-3.6,1.4-5.7,4.4-5.7c3.1,0,4.4,2,4.4,5.7V175z
			 M310.5,172.9c0-3.2-1.1-4.5-3.1-4.5c-2,0-3.1,1.3-3.1,4.5v2.1c0,3.2,1.1,4.5,3.1,4.5c2.1,0,3.1-1.3,3.1-4.5V172.9z"/>
		<path class="st4" d="M322.6,175c0,3.7-1.3,5.7-4.4,5.7c-3.1,0-4.4-2.1-4.4-5.7v-2c0-3.6,1.4-5.7,4.4-5.7c3.1,0,4.4,2,4.4,5.7V175z
			 M321.3,172.9c0-3.2-1.1-4.5-3.1-4.5c-2,0-3.1,1.3-3.1,4.5v2.1c0,3.2,1.1,4.5,3.1,4.5c2.1,0,3.1-1.3,3.1-4.5V172.9z"/>
		<path class="st4" d="M333.4,175c0,3.7-1.3,5.7-4.4,5.7c-3.1,0-4.4-2.1-4.4-5.7v-2c0-3.6,1.4-5.7,4.4-5.7c3.1,0,4.4,2,4.4,5.7V175z
			 M332.1,172.9c0-3.2-1.1-4.5-3.1-4.5c-2,0-3.1,1.3-3.1,4.5v2.1c0,3.2,1.1,4.5,3.1,4.5c2.1,0,3.1-1.3,3.1-4.5V172.9z"/>
		<path class="st4" d="M340.4,167.5h4.1c2.8,0,4.1,1,4.1,3.2v0.4c0,1.1-0.5,2.2-2.1,2.6c1.6,0.2,2.7,1.2,2.7,3v0.5
			c0,2.1-1.4,3.4-4.2,3.4h-4.7V167.5z M341.7,168.6v4.6h2.9c1.8,0,2.8-0.5,2.8-2.2v-0.3c0-1.5-0.9-2.1-3-2.1H341.7z M341.7,179.4
			h3.3c2,0,3-0.8,3-2.3v-0.4c0-1.6-0.8-2.4-3.4-2.4h-3V179.4z"/>
		<path class="st4" d="M359.9,167.5v1.1h-4.2v11.9h-1.3v-11.9h-4.1v-1.1H359.9z"/>
		<path class="st4" d="M370.4,168.6l-0.6,1c-1.2-0.8-2.2-1.1-3.5-1.1c-2.5,0-3.8,1.9-3.8,4.6v1.7c0,3.2,1.4,4.8,4,4.8
			c1,0,2.3-0.2,3-0.6v-4.1h-3.1v-1.1h4.3v5.9c-1.1,0.8-2.6,1.2-4.3,1.2c-3.6,0-5.2-2.2-5.2-6v-1.6c0-3.7,1.8-5.8,5-5.8
			C368,167.3,369.3,167.8,370.4,168.6z"/>
	</g>
	<g class="st2">
		<path class="st3" d="M40.8,153.3c4-2.3,4.4-3,4.4-5v-1.5h-4.3V146h5.2v2.3c0,2.4-0.6,3.2-4.8,5.7L40.8,153.3z M49.6,149.4h2v0.8
			h-2v6.5h-0.9v-11.9h0.9V149.4z"/>
		<path class="st3" d="M52.8,151.1c4.2-1.8,4.5-2.3,4.5-4v-0.7h-4.1v-0.8h5v1.5c0,2.2-0.7,2.8-5,4.7L52.8,151.1z M54.5,152.5h7.6
			v4.3h-0.9v-3.5h-6.7V152.5z M61.2,146.7v-1.9h0.9v6.9h-0.9V150h-2.6v-0.8h2.6v-1.7h-2.4v-0.8H61.2z"/>
	</g>
	<g class="st2">
		<path class="st4" d="M45.6,180.5v-11.4l-3.1,1.9l-0.6-1l4-2.5h1v13H45.6z"/>
		<path class="st4" d="M59.3,172.3v4.1h1.9v1.2h-1.9v2.9H58v-2.9h-6.5v-1.2l6.3-8.9h1.4l-6.3,8.9h5v-4.1H59.3z"/>
		<path class="st4" d="M71.4,175c0,3.7-1.3,5.7-4.4,5.7c-3.1,0-4.4-2.1-4.4-5.7v-2c0-3.6,1.4-5.7,4.4-5.7c3.1,0,4.4,2,4.4,5.7V175z
			 M70.1,172.9c0-3.2-1.1-4.5-3.1-4.5c-2,0-3.1,1.3-3.1,4.5v2.1c0,3.2,1.1,4.5,3.1,4.5c2.1,0,3.1-1.3,3.1-4.5V172.9z"/>
		<path class="st4" d="M82.2,173l5.7,7.4h-1.6l-5-6.5l-1.7,1.7v4.8h-1.3v-13h1.3v6.6l6.3-6.6h1.7L82.2,173z"/>
		<path class="st4" d="M95,174.9c-0.2,0-0.3,0-0.5,0h-3.2v5.6H90v-13h4.5c2.6,0,4.1,1.5,4.1,3.5v0.3c0,1.6-0.9,2.8-2.3,3.3l2.6,5.9
			h-1.4L95,174.9z M91.2,168.6v5.1h2.8c2.3,0,3.2-0.9,3.2-2.5v-0.2c0-1.5-1-2.4-3-2.4H91.2z"/>
		<path class="st4" d="M100.2,167.5h1.4l2.9,11.6h0l3.1-11.6h1.4l3.1,11.6h0l2.9-11.6h1.3l-3.6,13h-1.4l-3.1-11.5l-3.1,11.5h-1.4
			L100.2,167.5z"/>
	</g>
	<g class="st2">
		<path class="st4" d="M489.6,180.5v-11.4l-3.1,1.9l-0.6-1l4-2.5h1v13H489.6z"/>
		<path class="st4" d="M496.4,179.1h1.6l-1.3,4.1h-1L496.4,179.1z"/>
		<path class="st4" d="M507.7,172.3v4.1h1.9v1.2h-1.9v2.9h-1.3v-2.9h-6.5v-1.2l6.3-8.9h1.4l-6.3,8.9h5v-4.1H507.7z"/>
		<path class="st4" d="M514.6,180.5h-1.4l5.3-11.8h-7.3v-1.2h8.7v1L514.6,180.5z"/>
		<path class="st4" d="M530.6,175c0,3.7-1.3,5.7-4.4,5.7c-3.1,0-4.4-2.1-4.4-5.7v-2c0-3.6,1.4-5.7,4.4-5.7c3.1,0,4.4,2,4.4,5.7V175z
			 M529.3,172.9c0-3.2-1.1-4.5-3.1-4.5c-2,0-3.1,1.3-3.1,4.5v2.1c0,3.2,1.1,4.5,3.1,4.5c2.1,0,3.1-1.3,3.1-4.5V172.9z"/>
		<path class="st4" d="M533.2,179.1h1.6l-1.3,4.1h-1L533.2,179.1z"/>
		<path class="st4" d="M545.8,175c0,3.7-1.3,5.7-4.4,5.7c-3.1,0-4.4-2.1-4.4-5.7v-2c0-3.6,1.4-5.7,4.4-5.7c3.1,0,4.4,2,4.4,5.7V175z
			 M544.5,172.9c0-3.2-1.1-4.5-3.1-4.5c-2,0-3.1,1.3-3.1,4.5v2.1c0,3.2,1.1,4.5,3.1,4.5c2.1,0,3.1-1.3,3.1-4.5V172.9z"/>
		<path class="st4" d="M556.6,175c0,3.7-1.3,5.7-4.4,5.7c-3.1,0-4.4-2.1-4.4-5.7v-2c0-3.6,1.4-5.7,4.4-5.7c3.1,0,4.4,2,4.4,5.7V175z
			 M555.3,172.9c0-3.2-1.1-4.5-3.1-4.5c-2,0-3.1,1.3-3.1,4.5v2.1c0,3.2,1.1,4.5,3.1,4.5c2.1,0,3.1-1.3,3.1-4.5V172.9z"/>
		<path class="st4" d="M567.4,175c0,3.7-1.3,5.7-4.4,5.7c-3.1,0-4.4-2.1-4.4-5.7v-2c0-3.6,1.4-5.7,4.4-5.7c3.1,0,4.4,2,4.4,5.7V175z
			 M566.1,172.9c0-3.2-1.1-4.5-3.1-4.5c-2,0-3.1,1.3-3.1,4.5v2.1c0,3.2,1.1,4.5,3.1,4.5c2.1,0,3.1-1.3,3.1-4.5V172.9z"/>
		<path class="st4" d="M578.2,173l5.7,7.4h-1.6l-5-6.5l-1.7,1.7v4.8h-1.3v-13h1.3v6.6l6.3-6.6h1.7L578.2,173z"/>
		<path class="st4" d="M591,174.9c-0.2,0-0.3,0-0.5,0h-3.2v5.6H586v-13h4.5c2.6,0,4.1,1.5,4.1,3.5v0.3c0,1.6-0.9,2.8-2.3,3.3
			l2.6,5.9h-1.3L591,174.9z M587.3,168.6v5.1h2.8c2.3,0,3.2-0.9,3.2-2.5v-0.2c0-1.5-1-2.4-3-2.4H587.3z"/>
		<path class="st4" d="M596.2,167.5h1.4l2.9,11.6h0l3.1-11.6h1.4l3.1,11.6h0l2.9-11.6h1.3l-3.6,13h-1.4l-3.1-11.5l-3.1,11.5h-1.4
			L596.2,167.5z"/>
	</g>
	<path id="Rectangle-Copy-27" class="st5" d="M42,57h76c1.1,0,2,0.9,2,2v24c0,1.1-0.9,2-2,2H42c-1.1,0-2-0.9-2-2V59
		C40,57.9,40.9,57,42,57z"/>
	<path id="Line-2-Copy-23" class="st6" d="M230.2,154v20"/>
	<path id="Line-2-Copy-24" class="st6" d="M460.2,154v20"/>
	<g class="st2">
		<path class="st4" d="M57.3,74.7c1.5,0,2.7-0.1,3.8-0.3l0.1,0.9c-2.3,0.2-4.3,0.3-8.6,0.3v-0.9c1.4,0,2.6,0,3.7,0v-2.3h1V74.7z
			 M56.8,70.2c-0.1,0.2-0.3,0.4-0.8,0.9c-0.5,0.4-1.5,1.2-2.5,1.9l-0.6-0.7c1.1-0.7,2.2-1.5,2.7-2c0.7-0.7,0.7-1.1,0.7-1.8V68h-3
			v-0.9h3v-1.6h1v1.6h3V68h-3v0.4c0,0.8,0.1,1.1,0.8,1.8c0.5,0.4,1.6,1.2,2.4,1.7l-0.5,0.7c-0.8-0.5-1.7-1.2-2.2-1.6
			C57.2,70.6,56.9,70.4,56.8,70.2L56.8,70.2z M63.1,78.3h-1V65.5h1V78.3z"/>
		<path class="st4" d="M69.1,69.9c-0.1,0.2-0.5,0.7-1.1,1.2c-0.5,0.4-1.4,1.2-2.1,1.7l-0.6-0.7c0.8-0.6,1.7-1.3,2.4-1.9
			c0.7-0.7,0.8-1.2,0.8-1.9v-1.1h-2.9v-0.9h6.6v0.9h-2.7v1.1c0,0.8,0.1,1.2,1,2c0.4,0.4,1.2,1,2,1.5l-0.6,0.7
			c-0.6-0.4-1.2-0.9-1.7-1.2C69.8,70.6,69.2,70.1,69.1,69.9L69.1,69.9z M67.4,73.6h8.2v4.7h-1v-3.9h-7.3V73.6z M75.7,72.9h-1v-3.3
			H72v-0.9h2.7v-3.2h1V72.9z"/>
		<path class="st4" d="M81.6,74.5c4.3-2.5,4.8-3.3,4.8-5.4v-1.6h-4.6v-0.9h5.6v2.5c0,2.5-0.7,3.5-5.2,6.1L81.6,74.5z M91.1,70.3h2.1
			v0.9h-2.1v7h-1V65.5h1V70.3z"/>
		<path class="st4" d="M94.5,72.1c4.5-1.9,4.8-2.5,4.8-4.3v-0.7H95v-0.9h5.4v1.7c0,2.4-0.7,3-5.4,5L94.5,72.1z M96.4,73.7h8.2v4.7
			h-1v-3.8h-7.3V73.7z M103.7,67.5v-2h1v7.5h-1V71h-2.8v-0.9h2.8v-1.8h-2.5v-0.9H103.7z"/>
	</g>
	<path id="Line-Copy-5" class="st6" d="M0,119h720"/>
	<g class="st2">
		<path class="st4" d="M178.5,74.1h-7.6V63.3h1.3v4.1h5v-4.1h1.3V74.1z M172.2,72.9h5v-4.4h-5V72.9z M183.3,78.4H182V62h1.3V78.4z"
			/>
		<path class="st4" d="M201.1,75v1.1H186V75H201.1z M199.1,71.9h-10.9v-8.5H199v1.1h-9.5v2.6h9.4v1.1h-9.4v2.6h9.7V71.9z"/>
		<path class="st4" d="M208.1,75v-4.1h1.3V75h8.1v1.1h-15.1V75H208.1z M214,67.8c0-0.5,0-1,0-1.5v-1.7h-9.6v-1.1h10.9v2.1
			c0,3.2-0.2,5.3-0.6,7.4l-1.3-0.1c0.3-1.4,0.5-2.6,0.6-4l-9.8,0.2l0-1.1L214,67.8z"/>
		<path class="st4" d="M219.5,67.4v-1.1c0-1.8,1.6-3.6,4.1-3.6s4.1,1.8,4.1,3.6v1.1c0,1.8-1.6,3.6-4.1,3.6S219.5,69.2,219.5,67.4z
			 M220.8,66.4v0.9c0,1.4,1.2,2.6,2.8,2.6c1.7,0,2.8-1.2,2.8-2.6v-0.9c0-1.4-1.2-2.6-2.8-2.6C221.9,63.8,220.8,65.1,220.8,66.4z
			 M223.6,77.1h9.2v1.1h-10.5v-5.4h1.3V77.1z M232.4,73.8h-1.3V62h1.3V73.8z"/>
		<path class="st4" d="M245.7,68.8v-3.1h1.3v3.1h7.8v1.1h-15.1v-1.1H245.7z M252.5,62.5V64c0,0.9-0.1,2.6-0.4,3.8l-1.3-0.1
			c0.3-1.2,0.4-2.5,0.4-3.5v-0.6h-9.6v-1.1H252.5z M252.5,71.6v4h-9.4v1.9h9.9v1.1h-11.1v-4h9.4v-1.9h-9.5v-1.1H252.5z"/>
		<path class="st4" d="M271.2,75v1.1H256V75H271.2z M269.1,71h-10.9v-7.5h10.8v1.1h-9.5v5.3h9.7V71z"/>
		<path class="st4" d="M277.8,63.5h4.1c2.8,0,4.1,1,4.1,3.2V67c0,1.1-0.5,2.2-2.1,2.6c1.6,0.2,2.7,1.2,2.7,3V73
			c0,2.1-1.4,3.4-4.2,3.4h-4.7V63.5z M279,64.6v4.6h2.9c1.8,0,2.8-0.5,2.8-2.2v-0.3c0-1.5-0.9-2.1-3-2.1H279z M279,75.4h3.3
			c2,0,3-0.8,3-2.3v-0.4c0-1.6-0.8-2.4-3.4-2.4h-3V75.4z"/>
		<path class="st4" d="M297.3,63.5v1.1h-4.2v11.9h-1.3V64.6h-4.1v-1.1H297.3z"/>
		<path class="st4" d="M307.7,64.6l-0.6,1c-1.2-0.8-2.2-1.1-3.5-1.1c-2.5,0-3.8,1.9-3.8,4.6v1.7c0,3.2,1.4,4.8,4,4.8
			c1,0,2.3-0.2,3-0.6v-4.1h-3.1v-1.1h4.3v5.9c-1.1,0.8-2.6,1.2-4.3,1.2c-3.6,0-5.2-2.2-5.2-6v-1.6c0-3.7,1.8-5.8,5-5.8
			C305.4,63.3,306.7,63.8,307.7,64.6z"/>
	</g>
	<g id="Group-12" transform="translate(136.000000, 58.000000)">
		<g id="Group-3" transform="translate(0.000000, 0.501621)">
			<g id="Clip-2">
			</g>
			<defs>
				<filter id="Adobe_OpacityMaskFilter" filterUnits="userSpaceOnUse" x="0" y="0.4" width="24.6" height="24.7">
					<feColorMatrix  type="matrix" values="1 0 0 0 0  0 1 0 0 0  0 0 1 0 0  0 0 0 1 0"/>
				</filter>
			</defs>
			<mask maskUnits="userSpaceOnUse" x="0" y="0.4" width="24.6" height="24.7" id="mask-2_1_">
				<g class="st7">
					<polygon id="path-1_1_" class="st8" points="0,0.4 24.6,0.4 24.6,25.1 0,25.1 					"/>
				</g>
			</mask>
			<path id="Fill-1" class="st9" d="M12.2,0.4C5.4,0.4,0,6,0,12.8c0,6.8,5.6,12.3,12.4,12.3c6.8,0,12.3-5.6,12.2-12.4
				C24.6,5.9,19,0.4,12.2,0.4"/>
		</g>
		<path id="Fill-4" class="st8" d="M14,15.4c-0.4,0.2-0.9,0.3-1.3,0.3c-0.4,0-0.7,0-1.1,0.1c0-0.3,0-0.6,0-0.9c0-0.5,0-0.9-0.1-1.4
			c0-0.1,0-0.1,0.1-0.1c0.5,0,1.1-0.1,1.6,0c0.3,0,0.5,0.1,0.8,0.2c0.4,0.2,0.5,0.5,0.5,0.9C14.6,15,14.4,15.2,14,15.4 M11.4,10.2
			c0.6,0,1.2-0.1,1.7,0.1c0.2,0.1,0.4,0.1,0.5,0.2c0.5,0.3,0.5,1.2-0.2,1.5c-0.4,0.2-0.8,0.3-1.2,0.3c-0.3,0-0.5,0-0.8,0
			C11.4,11.6,11.4,10.9,11.4,10.2 M16.7,14c-0.1-0.6-0.4-1.1-1-1.4c-0.2-0.1-0.4-0.2-0.6-0.2c0,0,0.1,0,0.1-0.1
			c0.4-0.3,0.6-0.7,0.7-1.1c0-0.2,0-0.4,0-0.6c-0.1-0.7-0.4-1.2-1-1.5c-0.4-0.2-0.9-0.3-1.4-0.4c-0.1,0-0.2,0-0.3,0
			c0-0.6,0-1.1-0.1-1.7c0-0.1,0-0.1-0.1-0.1c-0.3,0-0.6,0-0.9,0c-0.1,0-0.1,0-0.1,0.1c0,0.1,0,0.2,0,0.3c0,0.4,0,0.8,0,1.3
			c-0.3,0-0.5,0-0.8,0c0-0.6,0-1.2-0.1-1.8c-0.4,0-0.7,0-1.1,0c0,0.6,0,1.2,0.1,1.8C9.4,9,8.7,9,8,9c0,0.4,0,0.7,0,1.1
			c0,0.1,0,0.2,0.2,0.1c0.2,0,0.5,0,0.7,0c0.3,0,0.5,0.2,0.5,0.5l0.2,4.8c0,0.3-0.1,0.4-0.4,0.4c-0.2,0-0.4,0-0.7,0
			c-0.1,0-0.1,0-0.1,0.1c0,0.4-0.1,0.7-0.1,1.1c0,0.1,0,0.1,0,0.2c0,0,0.1,0,0.1,0c0.7,0,1.3,0,2-0.1c0.1,0,0.1,0,0.1,0.1
			c0,0.2,0,0.5,0,0.7c0,0.3,0,0.6,0,1c0.4,0,0.7,0,1.1,0c0-0.6,0-1.2-0.1-1.8c0.3,0,0.6,0,0.8,0c0,0.6,0,1.2,0.1,1.8
			c0.4,0,0.7,0,1,0c0,0,0.1-0.1,0.1-0.1c0-0.2,0-0.4,0-0.6c0-0.4,0-0.8,0-1.1c0.1,0,0.1,0,0.2,0c0.6-0.1,1.2-0.2,1.7-0.4
			c0.5-0.2,0.9-0.6,1.1-1.2C16.8,15,16.8,14.5,16.7,14"/>
		<path id="Fill-6" class="st10" d="M11.6,15.8c0-0.3,0-0.6,0-0.9c0-0.5,0-0.9-0.1-1.4c0-0.1,0-0.1,0.1-0.1c0.5,0,1.1-0.1,1.6,0
			c0.3,0,0.5,0.1,0.8,0.2c0.4,0.2,0.5,0.5,0.5,0.9c0,0.4-0.2,0.7-0.5,0.9c-0.4,0.2-0.9,0.3-1.3,0.3C12.3,15.8,12,15.8,11.6,15.8"/>
		<path id="Fill-8" class="st10" d="M11.4,10.2c0.6,0,1.2-0.1,1.7,0.1c0.2,0,0.4,0.1,0.5,0.2c0.5,0.3,0.5,1.2-0.2,1.5
			c-0.4,0.2-0.8,0.3-1.2,0.3c-0.3,0-0.5,0-0.8,0C11.4,11.6,11.4,10.9,11.4,10.2"/>
		<path id="Fill-10" class="st8" d="M12.3,4.1L12.3,4.1c-5,0-9.1,4.1-9.1,9.2c0,2.4,1,4.7,2.7,6.4c1.7,1.7,4,2.6,6.4,2.6h0
			c2.4,0,4.7-1,6.4-2.7c1.7-1.7,2.6-4,2.6-6.5c0-2.4-1-4.7-2.7-6.4C17,5.1,14.7,4.1,12.3,4.1z M12.3,23.9c-2.8,0-5.5-1.1-7.5-3.1
			c-2-2-3.1-4.7-3.1-7.5c0-5.9,4.7-10.7,10.6-10.7c2.8,0,5.5,1.1,7.5,3.1c2,2,3.1,4.7,3.1,7.5c0,2.8-1.1,5.5-3.1,7.6
			C17.9,22.8,15.2,23.9,12.3,23.9L12.3,23.9z"/>
	</g>
</g>
</svg>
